<?xml version="1.0" standalone="no"?>
<!DOCTYPE svg PUBLIC "-//W3C//DTD SVG 20010904//EN"
 "http://www.w3.org/TR/2001/REC-SVG-20010904/DTD/svg10.dtd">
<svg version="1.0" xmlns="http://www.w3.org/2000/svg"
 width="301.000000pt" height="301.000000pt" viewBox="0 0 301.000000 301.000000"
 preserveAspectRatio="xMidYMid meet">
<metadata>
Created by potrace 1.11, written by Peter Selinger 2001-2013
</metadata>
<g transform="translate(0.000000,301.000000) scale(0.100000,-0.100000)"
fill="#000000" stroke="none">
<path d="M528 2897 c-75 -61 -137 -118 -138 -126 0 -13 162 -300 217 -382 12
-19 23 -39 23 -45 0 -5 -30 -84 -68 -174 l-67 -165 -190 -32 c-105 -17 -209
-34 -232 -38 -76 -10 -71 3 -72 -206 -1 -188 -1 -189 21 -199 24 -10 404 -109
448 -116 14 -3 31 -14 39 -25 13 -18 111 -250 126 -299 4 -12 -23 -54 -87
-136 -50 -66 -95 -121 -98 -124 -18 -15 -120 -159 -120 -170 0 -6 15 -26 33
-44 17 -18 78 -81 135 -139 57 -59 107 -107 110 -107 4 0 93 59 197 130 105
72 204 137 220 146 29 15 34 13 190 -56 88 -40 164 -75 168 -79 4 -4 10 -21
13 -37 3 -16 10 -47 16 -69 5 -22 12 -51 15 -65 2 -14 9 -43 15 -65 6 -22 12
-52 15 -66 2 -14 14 -66 26 -115 l22 -89 193 -1 c106 0 195 3 198 7 4 7 43
197 58 282 3 15 7 35 10 45 3 9 7 33 10 52 4 19 10 51 14 70 12 47 12 49 12
59 0 5 60 32 133 61 72 29 146 58 164 66 17 8 36 14 41 14 6 0 57 -31 114 -68
148 -98 326 -212 331 -212 8 0 212 285 212 295 0 6 -41 48 -90 95 -50 47 -123
117 -164 155 -41 39 -84 79 -95 90 -12 11 -52 49 -89 83 l-67 64 -51 -44 c-28
-23 -76 -62 -107 -85 -32 -23 -61 -46 -67 -50 -27 -22 -139 -83 -214 -117
-214 -97 -461 -117 -653 -55 -176 58 -316 160 -433 315 -230 304 -264 727 -83
1047 71 125 152 217 288 327 l43 36 1 133 c1 73 -2 137 -5 143 -3 5 -33 -4
-71 -23 l-65 -32 -194 123 c-107 67 -198 124 -204 126 -5 2 -72 -47 -147 -109z"/>
</g>
</svg>
